{
  "accessors": [
    {
      "bufferView": 2,
      "componentType": 5126,
      "count": 6896,
      "max": [
        19.891029357910156,
        -1.0309219360351563,
        0.550000011920929
      ],
      "min": [
        1.05609130859375,
        -19.859859466552734,
        -0.16619884967803955
      ],
      "type": "VEC3"
    },
    {
      "bufferView": 2,
      "byteOffset": 82752,
      "componentType": 5126,
      "count": 6896,
      "type": "VEC3"
    },
    {
      "bufferView": 0,
      "componentType": 5125,
      "count": 22524,
      "type": "SCALAR"
    },
    {
      "bufferView": 2,
      "byteOffset": 165504,
      "componentType": 5126,
      "count": 294,
      "max": [
        -4.780928611755371,
        -5.67449426651001,
        0.5
      ],
      "min": [
        -5.325040340423584,
        -10.532374382019043,
        0.4749999940395355
      ],
      "type": "VEC3"
    },
    {
      "bufferView": 2,
      "byteOffset": 169032,
      "componentType": 5126,
      "count": 294,
      "type": "VEC3"
    },
    {
      "bufferView": 0,
      "byteOffset": 90096,
      "componentType": 5125,
      "count": 984,
      "type": "SCALAR"
    },
    {
      "bufferView": 2,
      "byteOffset": 172560,
      "componentType": 5126,
      "count": 358,
      "max": [
        -7.166493892669678,
        -4.742134094238281,
        0.5
      ],
      "min": [
        -7.7762250900268555,
        -12.819368362426758,
        0.4749999940395355
      ],
      "type": "VEC3"
    },
    {
      "bufferView": 2,
      "byteOffset": 176856,
      "componentType": 5126,
      "count": 358,
      "type": "VEC3"
    },
    {
      "bufferView": 0,
      "byteOffset": 94032,
      "componentType": 5125,
      "count": 1176,
      "type": "SCALAR"
    },
    {
      "bufferView": 2,
      "byteOffset": 181152,
      "componentType": 5126,
      "count": 464,
      "max": [
        -11.155753135681152,
        -0.1647467017173767,
        0.5
      ],
      "min": [
        -31.715396881103516,
        -20.724393844604492,
        -0.5
      ],
      "type": "VEC3"
    },
    {
      "bufferView": 2,
      "byteOffset": 186720,
      "componentType": 5126,
      "count": 464,
      "type": "VEC3"
    },
    {
      "bufferView": 3,
      "componentType": 5126,
      "count": 464,
      "type": "VEC4"
    },
    {
      "bufferView": 1,
      "componentType": 5126,
      "count": 464,
      "type": "VEC2"
    },
    {
      "bufferView": 0,
      "byteOffset": 98736,
      "componentType": 5125,
      "count": 1344,
      "type": "SCALAR"
    },
    {
      "bufferView": 2,
      "byteOffset": 192288,
      "componentType": 5126,
      "count": 154,
      "max": [
        0.09378241002559662,
        0.09235765039920807,
        0.48953306674957275
      ],
      "min": [
        -0.09378241002559662,
        -0.09235765039920807,
        0.0
      ],
      "type": "VEC3"
    },
    {
      "bufferView": 2,
      "byteOffset": 194136,
      "componentType": 5126,
      "count": 154,
      "type": "VEC3"
    },
    {
      "bufferView": 1,
      "byteOffset": 3712,
      "componentType": 5126,
      "count": 154,
      "type": "VEC2"
    },
    {
      "bufferView": 0,
      "byteOffset": 104112,
      "componentType": 5125,
      "count": 648,
      "type": "SCALAR"
    },
    {
      "bufferView": 2,
      "byteOffset": 195984,
      "componentType": 5126,
      "count": 115,
      "max": [
        1.2999999523162842,
        1.280250072479248,
        0.6679697632789612
      ],
      "min": [
        -1.2999999523162842,
        -1.2802501916885376,
        0.0
      ],
      "type": "VEC3"
    },
    {
      "bufferView": 2,
      "byteOffset": 197364,
      "componentType": 5126,
      "count": 115,
      "type": "VEC3"
    },
    {
      "bufferView": 1,
      "byteOffset": 4944,
      "componentType": 5126,
      "count": 115,
      "type": "VEC2"
    },
    {
      "bufferView": 0,
      "byteOffset": 106704,
      "componentType": 5125,
      "count": 486,
      "type": "SCALAR"
    }
  ],
  "asset": {
    "generator": "fab-model-conversion",
    "version": "2.0"
  },
  "bufferViews": [
    {
      "buffer": 0,
      "byteLength": 108648,
      "target": 34963
    },
    {
      "buffer": 0,
      "byteLength": 5864,
      "byteOffset": 108648,
      "byteStride": 8,
      "target": 34962
    },
    {
      "buffer": 0,
      "byteLength": 198744,
      "byteOffset": 114512,
      "byteStride": 12,
      "target": 34962
    },
    {
      "buffer": 0,
      "byteLength": 7424,
      "byteOffset": 313256,
      "byteStride": 16,
      "target": 34962
    }
  ],
  "buffers": [
    {
      "byteLength": 320680,
      "uri": "scene.bin"
    }
  ],
  "extensionsUsed": [
    "KHR_materials_specular"
  ],
  "images": [
    {
      "uri": "textures/wood_baseColor.jpeg"
    },
    {
      "uri": "textures/wood_normal.jpeg"
    }
  ],
  "materials": [
    {
      "doubleSided": true,
      "name": "Cylinder001__0",
      "pbrMetallicRoughness": {
        "roughnessFactor": 0.693335446355646
      }
    },
    {
      "doubleSided": true,
      "extensions": {
        "KHR_materials_specular": {
          "specularFactor": 0.6201923663005449
        }
      },
      "name": "painted_metal",
      "pbrMetallicRoughness": {
        "baseColorFactor": [
          0.0,
          0.0,
          0.0,
          1.0
        ],
        "metallicFactor": 0.3459058160939157,
        "roughnessFactor": 0.14209262352037655
      }
    },
    {
      "doubleSided": true,
      "name": "wood",
      "normalTexture": {
        "index": 1,
        "scale": 0.22400068266874718
      },
      "pbrMetallicRoughness": {
        "baseColorTexture": {
          "index": 0
        },
        "metallicFactor": 0.0,
        "roughnessFactor": 0.32495032365812926
      }
    },
    {
      "doubleSided": true,
      "name": "plastic",
      "pbrMetallicRoughness": {
        "baseColorFactor": [
          0.0470588,
          0.0470588,
          0.0470588,
          1.0
        ],
        "metallicFactor": 0.0,
        "roughnessFactor": 0.16037839353415173
      }
    }
  ],
  "meshes": [
    {
      "name": "Shape1_painted metal_0",
      "primitives": [
        {
          "attributes": {
            "NORMAL": 1,
            "POSITION": 0
          },
          "indices": 2,
          "material": 1,
          "mode": 4
        }
      ]
    },
    {
      "name": "Object001_painted metal_0",
      "primitives": [
        {
          "attributes": {
            "NORMAL": 4,
            "POSITION": 3
          },
          "indices": 5,
          "material": 1,
          "mode": 4
        }
      ]
    },
    {
      "name": "Object002_painted metal_0",
      "primitives": [
        {
          "attributes": {
            "NORMAL": 7,
            "POSITION": 6
          },
          "indices": 8,
          "material": 1,
          "mode": 4
        }
      ]
    },
    {
      "name": "Object003_wood_0",
      "primitives": [
        {
          "attributes": {
            "NORMAL": 10,
            "POSITION": 9,
            "TANGENT": 11,
            "TEXCOORD_0": 12
          },
          "indices": 13,
          "material": 2,
          "mode": 4
        }
      ]
    },
    {
      "name": "Cylinder001__0",
      "primitives": [
        {
          "attributes": {
            "NORMAL": 15,
            "POSITION": 14,
            "TEXCOORD_0": 16
          },
          "indices": 17,
          "material": 0,
          "mode": 4
        }
      ]
    },
    {
      "name": "Cylinder002_plastic_0",
      "primitives": [
        {
          "attributes": {
            "NORMAL": 19,
            "POSITION": 18,
            "TEXCOORD_0": 20
          },
          "indices": 21,
          "material": 3,
          "mode": 4
        }
      ]
    }
  ],
  "nodes": [
    {
      "children": [
        1
      ],
      "matrix": [
        1.0,
        0.0,
        0.0,
        0.0,
        0.0,
        2.220446049250313e-16,
        -1.0,
        0.0,
        0.0,
        1.0,
        2.220446049250313e-16,
        0.0,
        0.0,
        0.0,
        0.0,
        1.0
      ],
      "name": "Sketchfab_model"
    },
    {
      "children": [
        2
      ],
      "matrix": [
        0.009999999776482582,
        0.0,
        0.0,
        0.0,
        0.0,
        0.0,
        0.009999999776482582,
        0.0,
        0.0,
        -0.009999999776482582,
        0.0,
        0.0,
        0.0,
        0.0,
        0.0,
        1.0
      ],
      "name": "26614c8ded804b738dc03c1399f87cf2.fbx"
    },
    {
      "children": [
        3,
        6,
        9,
        12,
        15,
        17
      ],
      "name": "RootNode"
    },
    {
      "children": [
        4
      ],
      "matrix": [
        0.981469988822937,
        0.0,
        0.0,
        0.0,
        0.0,
        0.981469988822936,
        4.2901415773219735e-08,
        0.0,
        0.0,
        -4.371138828673793e-08,
        0.999999999999999,
        0.0,
        -0.10135936737060547,
        -0.264329731464386,
        -0.5914195775985718,
        1.0
      ],
      "name": "Shape1"
    },
    {
      "children": [
        5
      ],
      "matrix": [
        1.0,
        0.0,
        -0.0,
        0.0,
        0.0,
        1.0,
        0.0,
        0.0,
        0.0,
        0.0,
        1.0,
        0.0,
        -10.473559379577637,
        10.445390701293945,
        -0.1919005811214447,
        1.0
      ],
      "name": "Object_4"
    },
    {
      "mesh": 0,
      "name": "Shape1_painted metal_0"
    },
    {
      "children": [
        7
      ],
      "matrix": [
        0.6803343259754902,
        -1.0011036027599443,
        -6.129991564883065e-17,
        0.0,
        1.0011036027599431,
        0.6803343259754896,
        5.290817539294164e-08,
        0.0,
        -3.615309174965451e-08,
        -2.4569074869895482e-08,
        0.999999999999999,
        0.0,
        -0.07780611515045166,
        -0.23317906260490417,
        -0.20075634121894836,
        1.0
      ],
      "name": "Object001"
    },
    {
      "children": [
        8
      ],
      "matrix": [
        1.0,
        0.0,
        -0.0,
        0.0,
        0.0,
        1.0,
        0.0,
        0.0,
        0.0,
        0.0,
        1.0,
        0.0,
        5.044851303100586,
        10.276604652404785,
        -0.5000500082969666,
        1.0
      ],
      "name": "Object_7"
    },
    {
      "mesh": 1,
      "name": "Object001_painted metal_0"
    },
    {
      "children": [
        10
      ],
      "matrix": [
        0.8054358881004063,
        0.9124947697743668,
        5.587418630092501e-17,
        0.0,
        -0.912494769774366,
        0.8054358881004057,
        5.320187030024764e-08,
        0.0,
        3.277122388166701e-08,
        -2.892632455709159e-08,
        0.999999999999999,
        0.0,
        -0.07779085636138916,
        -0.23318475484848022,
        -0.16119980812072754,
        1.0
      ],
      "name": "Object002"
    },
    {
      "children": [
        11
      ],
      "matrix": [
        1.0,
        0.0,
        -0.0,
        0.0,
        0.0,
        1.0,
        0.0,
        0.0,
        0.0,
        0.0,
        1.0,
        0.0,
        7.4713592529296875,
        10.27466869354248,
        -0.5000500082969666,
        1.0
      ],
      "name": "Object_10"
    },
    {
      "mesh": 2,
      "name": "Object002_painted metal_0"
    },
    {
      "children": [
        13
      ],
      "matrix": [
        1.0,
        0.0,
        0.0,
        0.0,
        0.0,
        0.999999999999999,
        4.371138828673792e-08,
        0.0,
        0.0,
        -4.371138828673792e-08,
        0.999999999999999,
        0.0,
        -0.08736419677734375,
        -0.2583015561103821,
        -0.6612498164176941,
        1.0
      ],
      "name": "Object003"
    },
    {
      "children": [
        14
      ],
      "matrix": [
        1.0,
        0.0,
        -0.0,
        0.0,
        0.0,
        1.0,
        0.0,
        0.0,
        0.0,
        0.0,
        1.0,
        0.0,
        21.435577392578125,
        10.444570541381836,
        0.0,
        1.0
      ],
      "name": "Object_13"
    },
    {
      "mesh": 3,
      "name": "Object003_wood_0"
    },
    {
      "children": [
        16
      ],
      "matrix": [
        1.0,
        0.0,
        0.0,
        0.0,
        0.0,
        0.999999999999999,
        4.371138828673792e-08,
        0.0,
        0.0,
        -4.371138828673792e-08,
        0.999999999999999,
        0.0,
        -0.08347475528717041,
        -0.23558136820793152,
        -0.6612498760223389,
        1.0
      ],
      "name": "Cylinder001"
    },
    {
      "mesh": 4,
      "name": "Cylinder001__0"
    },
    {
      "children": [
        18
      ],
      "matrix": [
        1.0,
        0.0,
        0.0,
        0.0,
        0.0,
        0.999999999999999,
        4.371138828673792e-08,
        0.0,
        0.0,
        -4.371138828673792e-08,
        0.999999999999999,
        0.0,
        -0.07611620426177979,
        -0.23015117645263672,
        -1.0101231336593628,
        1.0
      ],
      "name": "Cylinder002"
    },
    {
      "mesh": 5,
      "name": "Cylinder002_plastic_0"
    }
  ],
  "samplers": [
    {
      "magFilter": 9729,
      "minFilter": 9987,
      "wrapS": 10497,
      "wrapT": 10497
    }
  ],
  "scene": 0,
  "scenes": [
    {
      "name": "Sketchfab_Scene",
      "nodes": [
        0
      ]
    }
  ],
  "textures": [
    {
      "sampler": 0,
      "source": 0
    },
    {
      "sampler": 0,
      "source": 1
    }
  ]
}
