{
  "accessors": [
    {
      "bufferView": 2,
      "componentType": 5126,
      "count": 1329,
      "max": [
        0.014216017909348011,
        0.02164812758564949,
        0.014594901353120804
      ],
      "min": [
        -0.014428680762648582,
        -0.008651615120470524,
        -0.014174260199069977
      ],
      "type": "VEC3"
    },
    {
      "bufferView": 2,
      "byteOffset": 15948,
      "componentType": 5126,
      "count": 1329,
      "max": [
        0.9998507499694824,
        0.9999529123306274,
        0.9998807311058044
      ],
      "min": [
        -0.9998196959495544,
        -0.9996215105056763,
        -0.9998385906219482
      ],
      "type": "VEC3"
    },
    {
      "bufferView": 1,
      "componentType": 5126,
      "count": 1329,
      "max": [
        0.0,
        0.0
      ],
      "min": [
        0.0,
        0.0
      ],
      "type": "VEC2"
    },
    {
      "bufferView": 0,
      "componentType": 5125,
      "count": 5217,
      "type": "SCALAR"
    },
    {
      "bufferView": 2,
      "byteOffset": 31896,
      "componentType": 5126,
      "count": 491,
      "max": [
        0.0298907570540905,
        0.02063578926026821,
        0.0298907533288002
      ],
      "min": [
        -0.02989061176776886,
        -0.05089765787124634,
        -0.029889052733778954
      ],
      "type": "VEC3"
    },
    {
      "bufferView": 2,
      "byteOffset": 37788,
      "componentType": 5126,
      "count": 491,
      "max": [
        0.9898747205734253,
        0.9437982439994812,
        0.9898747801780701
      ],
      "min": [
        -0.9898750185966492,
        -1.0,
        -0.9898749589920044
      ],
      "type": "VEC3"
    },
    {
      "bufferView": 1,
      "byteOffset": 10632,
      "componentType": 5126,
      "count": 491,
      "max": [
        1.0,
        1.0
      ],
      "min": [
        0.0,
        0.0
      ],
      "type": "VEC2"
    },
    {
      "bufferView": 0,
      "byteOffset": 20868,
      "componentType": 5125,
      "count": 2250,
      "type": "SCALAR"
    },
    {
      "bufferView": 2,
      "byteOffset": 43680,
      "componentType": 5126,
      "count": 169,
      "max": [
        0.030213896185159683,
        -0.044440820813179016,
        0.03021385706961155
      ],
      "min": [
        -0.030213773250579834,
        -0.08970344811677933,
        -0.030213812366127968
      ],
      "type": "VEC3"
    },
    {
      "bufferView": 2,
      "byteOffset": 45708,
      "componentType": 5126,
      "count": 169,
      "max": [
        0.9997742176055908,
        0.4820093810558319,
        0.9997742176055908
      ],
      "min": [
        -0.9997742176055908,
        -1.0,
        -0.9997742176055908
      ],
      "type": "VEC3"
    },
    {
      "bufferView": 1,
      "byteOffset": 14560,
      "componentType": 5126,
      "count": 169,
      "max": [
        0.0,
        0.0
      ],
      "min": [
        0.0,
        0.0
      ],
      "type": "VEC2"
    },
    {
      "bufferView": 0,
      "byteOffset": 29868,
      "componentType": 5125,
      "count": 936,
      "type": "SCALAR"
    }
  ],
  "asset": {
    "extras": {
      "author": "Eduardo Cardoso (https://sketchfab.com/ducardoso)",
      "license": "CC-BY-4.0 (http://creativecommons.org/licenses/by/4.0/)",
      "source": "https://sketchfab.com/3d-models/light-led-bulb-da73ee4a320e41b8b219fcc34f459cf7",
      "title": "Light LED Bulb"
    },
    "generator": "Sketchfab-16.16.0",
    "version": "2.0"
  },
  "bufferViews": [
    {
      "buffer": 0,
      "byteLength": 33612,
      "name": "floatBufferViews",
      "target": 34963
    },
    {
      "buffer": 0,
      "byteLength": 15912,
      "byteOffset": 33612,
      "byteStride": 8,
      "name": "floatBufferViews",
      "target": 34962
    },
    {
      "buffer": 0,
      "byteLength": 47736,
      "byteOffset": 49524,
      "byteStride": 12,
      "name": "floatBufferViews",
      "target": 34962
    }
  ],
  "buffers": [
    {
      "byteLength": 97260,
      "uri": "scene.bin"
    }
  ],
  "extensionsUsed": [
    "KHR_materials_emissive_strength"
  ],
  "materials": [
    {
      "doubleSided": true,
      "name": "metalico1",
      "pbrMetallicRoughness": {
        "baseColorFactor": [
          0.957306,
          0.957306,
          0.957306,
          1.0
        ],
        "roughnessFactor": 0.24274681876970977
      }
    },
    {
      "doubleSided": true,
      "name": "plastico1",
      "pbrMetallicRoughness": {
        "baseColorFactor": [
          0.681351803781745,
          0.681351803781745,
          0.681351803781745,
          1.0
        ],
        "metallicFactor": 0.2,
        "roughnessFactor": 0.3645354059612041
      }
    },
    {
      "doubleSided": true,
      "emissiveFactor": [
        1.0,
        1.0,
        1.0
      ],
      "extensions": {
        "KHR_materials_emissive_strength": {
          "emissiveStrength": 2.792833949271581
        }
      },
      "name": "luzlampada"
    }
  ],
  "meshes": [
    {
      "name": "Object_0",
      "primitives": [
        {
          "attributes": {
            "NORMAL": 1,
            "POSITION": 0,
            "TEXCOORD_0": 2
          },
          "indices": 3,
          "material": 0,
          "mode": 4
        }
      ]
    },
    {
      "name": "Object_1",
      "primitives": [
        {
          "attributes": {
            "NORMAL": 5,
            "POSITION": 4,
            "TEXCOORD_0": 6
          },
          "indices": 7,
          "material": 1,
          "mode": 4
        }
      ]
    },
    {
      "name": "Object_2",
      "primitives": [
        {
          "attributes": {
            "NORMAL": 9,
            "POSITION": 8,
            "TEXCOORD_0": 10
          },
          "indices": 11,
          "material": 2,
          "mode": 4
        }
      ]
    }
  ],
  "nodes": [
    {
      "children": [
        1
      ],
      "matrix": [
        1.0,
        0.0,
        0.0,
        0.0,
        0.0,
        2.220446049250313e-16,
        -1.0,
        0.0,
        0.0,
        1.0,
        2.220446049250313e-16,
        0.0,
        0.0,
        0.0,
        0.0,
        1.0
      ],
      "name": "Sketchfab_model"
    },
    {
      "children": [
        2
      ],
      "name": "root"
    },
    {
      "children": [
        3
      ],
      "matrix": [
        1.0,
        0.0,
        0.0,
        0.0,
        0.0,
        2.220446049250313e-16,
        1.0,
        0.0,
        0.0,
        -1.0,
        2.220446049250313e-16,
        0.0,
        0.0,
        0.0,
        0.0,
        1.0
      ],
      "name": "GLTF_SceneRootNode"
    },
    {
      "children": [
        4,
        5,
        6
      ],
      "matrix": [
        1.0,
        0.0,
        0.0,
        0.0,
        0.0,
        1.0,
        0.0,
        0.0,
        0.0,
        0.0,
        1.0,
        0.0,
        0.0,
        0.11772561818361282,
        0.0,
        1.0
      ],
      "name": "Light bulb_0"
    },
    {
      "mesh": 0,
      "name": "Object_4"
    },
    {
      "mesh": 1,
      "name": "Object_5"
    },
    {
      "mesh": 2,
      "name": "Object_6"
    }
  ],
  "scene": 0,
  "scenes": [
    {
      "name": "Sketchfab_Scene",
      "nodes": [
        0
      ]
    }
  ]
}
