{
  "accessors": [
    {
      "bufferView": 2,
      "componentType": 5126,
      "count": 49039,
      "max": [
        1.2450040578842163,
        9.609113693237305,
        0.6815270781517029
      ],
      "min": [
        -1.2450016736984253,
        -3.0875205993652344e-05,
        -0.7482985854148865
      ],
      "type": "VEC3"
    },
    {
      "bufferView": 2,
      "byteOffset": 588468,
      "componentType": 5126,
      "count": 49039,
      "type": "VEC3"
    },
    {
      "bufferView": 3,
      "componentType": 5126,
      "count": 49039,
      "type": "VEC4"
    },
    {
      "bufferView": 1,
      "componentType": 5126,
      "count": 49039,
      "type": "VEC2"
    },
    {
      "bufferView": 1,
      "byteOffset": 392312,
      "componentType": 5126,
      "count": 49039,
      "type": "VEC2"
    },
    {
      "bufferView": 1,
      "byteOffset": 784624,
      "componentType": 5126,
      "count": 49039,
      "type": "VEC2"
    },
    {
      "bufferView": 1,
      "byteOffset": 1176936,
      "componentType": 5126,
      "count": 49039,
      "type": "VEC2"
    },
    {
      "bufferView": 1,
      "byteOffset": 1569248,
      "componentType": 5126,
      "count": 49039,
      "type": "VEC2"
    },
    {
      "bufferView": 0,
      "componentType": 5125,
      "count": 143199,
      "type": "SCALAR"
    }
  ],
  "asset": {
    "generator": "fab-model-conversion",
    "version": "2.0"
  },
  "bufferViews": [
    {
      "buffer": 0,
      "byteLength": 572796,
      "target": 34963
    },
    {
      "buffer": 0,
      "byteLength": 1961560,
      "byteOffset": 572796,
      "byteStride": 8,
      "target": 34962
    },
    {
      "buffer": 0,
      "byteLength": 1176936,
      "byteOffset": 2534356,
      "byteStride": 12,
      "target": 34962
    },
    {
      "buffer": 0,
      "byteLength": 784624,
      "byteOffset": 3711292,
      "byteStride": 16,
      "target": 34962
    }
  ],
  "buffers": [
    {
      "byteLength": 4495916,
      "uri": "scene.bin"
    }
  ],
  "extensionsUsed": [
    "KHR_materials_specular"
  ],
  "images": [
    {
      "uri": "textures/clock_baseColor.png"
    },
    {
      "uri": "textures/clock_metallicRoughness.png"
    },
    {
      "uri": "textures/clock_emissive.png"
    },
    {
      "uri": "textures/clock_normal.png"
    },
    {
      "uri": "textures/clock_specular_f0.png"
    }
  ],
  "materials": [
    {
      "alphaMode": "BLEND",
      "doubleSided": true,
      "emissiveFactor": [
        1.0,
        1.0,
        1.0
      ],
      "emissiveTexture": {
        "index": 2
      },
      "extensions": {
        "KHR_materials_specular": {
          "specularColorFactor": [
            1.0,
            1.0,
            1.0
          ],
          "specularFactor": 1.0,
          "specularTexture": {
            "index": 4
          }
        }
      },
      "name": "clock",
      "normalTexture": {
        "index": 3
      },
      "pbrMetallicRoughness": {
        "baseColorTexture": {
          "index": 0
        },
        "metallicRoughnessTexture": {
          "index": 1
        }
      }
    }
  ],
  "meshes": [
    {
      "name": "Object_0",
      "primitives": [
        {
          "attributes": {
            "NORMAL": 1,
            "POSITION": 0,
            "TANGENT": 2,
            "TEXCOORD_0": 3,
            "TEXCOORD_1": 4,
            "TEXCOORD_2": 5,
            "TEXCOORD_3": 6,
            "TEXCOORD_4": 7
          },
          "indices": 8,
          "material": 0,
          "mode": 4
        }
      ]
    }
  ],
  "nodes": [
    {
      "children": [
        1
      ],
      "matrix": [
        1.0,
        0.0,
        0.0,
        0.0,
        0.0,
        2.220446049250313e-16,
        -1.0,
        0.0,
        0.0,
        1.0,
        2.220446049250313e-16,
        0.0,
        0.0,
        0.0,
        0.0,
        1.0
      ],
      "name": "Sketchfab_model"
    },
    {
      "children": [
        2
      ],
      "name": "root"
    },
    {
      "children": [
        3
      ],
      "matrix": [
        1.0,
        0.0,
        0.0,
        0.0,
        0.0,
        2.220446049250313e-16,
        1.0,
        0.0,
        0.0,
        -1.0,
        2.220446049250313e-16,
        0.0,
        0.0,
        0.0,
        0.0,
        1.0
      ],
      "name": "GLTF_SceneRootNode"
    },
    {
      "children": [
        4
      ],
      "matrix": [
        0.23442262411117554,
        0.0,
        0.0,
        0.0,
        0.0,
        0.23442262411117554,
        0.0,
        0.0,
        0.0,
        0.0,
        0.23442262411117554,
        0.0,
        -0.49271726608276367,
        0.0,
        -2.6569745540618896,
        1.0
      ],
      "name": "clock.013_0"
    },
    {
      "mesh": 0,
      "name": "Object_4"
    }
  ],
  "samplers": [
    {
      "magFilter": 9729,
      "minFilter": 9987,
      "wrapS": 10497,
      "wrapT": 10497
    }
  ],
  "scene": 0,
  "scenes": [
    {
      "name": "Sketchfab_Scene",
      "nodes": [
        0
      ]
    }
  ],
  "textures": [
    {
      "sampler": 0,
      "source": 0
    },
    {
      "sampler": 0,
      "source": 1
    },
    {
      "sampler": 0,
      "source": 2
    },
    {
      "sampler": 0,
      "source": 3
    },
    {
      "sampler": 0,
      "source": 4
    }
  ]
}
