{
  "accessors": [
    {
      "bufferView": 2,
      "componentType": 5126,
      "count": 13271,
      "max": [
        1.8494129180908203,
        1.7080917358398438,
        2.2460594177246094
      ],
      "min": [
        -0.799236536026001,
        -1.493391990661621,
        -1.6938858032226563
      ],
      "type": "VEC3"
    },
    {
      "bufferView": 2,
      "byteOffset": 159252,
      "componentType": 5126,
      "count": 13271,
      "max": [
        0.9998267292976379,
        0.9998990297317505,
        0.9997737407684326
      ],
      "min": [
        -0.9998384118080139,
        -0.9991706013679504,
        -0.9998277425765991
      ],
      "type": "VEC3"
    },
    {
      "bufferView": 3,
      "componentType": 5126,
      "count": 13271,
      "max": [
        0.9996402263641357,
        0.9998468160629272,
        0.9998957514762878,
        1.0
      ],
      "min": [
        -0.9997463822364807,
        -0.9999028444290161,
        -0.999765932559967,
        -1.0
      ],
      "type": "VEC4"
    },
    {
      "bufferView": 3,
      "byteOffset": 212336,
      "componentType": 5126,
      "count": 13271,
      "max": [
        1.0,
        1.0,
        1.0,
        1.0
      ],
      "min": [
        0.9960784316062927,
        0.9960784316062927,
        0.9960784316062927,
        0.9960784316062927
      ],
      "type": "VEC4"
    },
    {
      "bufferView": 1,
      "componentType": 5126,
      "count": 13271,
      "max": [
        1.99600088596344,
        0.9844639897346497
      ],
      "min": [
        0.003999949898570776,
        0.004000000189989805
      ],
      "type": "VEC2"
    },
    {
      "bufferView": 1,
      "byteOffset": 106168,
      "componentType": 5126,
      "count": 13271,
      "max": [
        0.9926263093948364,
        0.9918236136436462
      ],
      "min": [
        0.0,
        0.0
      ],
      "type": "VEC2"
    },
    {
      "bufferView": 0,
      "componentType": 5125,
      "count": 60000,
      "type": "SCALAR"
    }
  ],
  "asset": {
    "extras": {
      "author": "DDFun (https://sketchfab.com/DDFun)",
      "license": "CC-BY-4.0 (http://creativecommons.org/licenses/by/4.0/)",
      "source": "https://sketchfab.com/3d-models/skeletons-a271192a8b2a4cf4a4bf7c9f9a3eddbc",
      "title": "Skeletons"
    },
    "generator": "Sketchfab-16.64.0",
    "version": "2.0"
  },
  "bufferViews": [
    {
      "buffer": 0,
      "byteLength": 240000,
      "name": "floatBufferViews",
      "target": 34963
    },
    {
      "buffer": 0,
      "byteLength": 212336,
      "byteOffset": 240000,
      "byteStride": 8,
      "name": "floatBufferViews",
      "target": 34962
    },
    {
      "buffer": 0,
      "byteLength": 318504,
      "byteOffset": 452336,
      "byteStride": 12,
      "name": "floatBufferViews",
      "target": 34962
    },
    {
      "buffer": 0,
      "byteLength": 424672,
      "byteOffset": 770840,
      "byteStride": 16,
      "name": "floatBufferViews",
      "target": 34962
    }
  ],
  "buffers": [
    {
      "byteLength": 1195512,
      "uri": "scene.bin"
    }
  ],
  "images": [
    {
      "uri": "textures/lambert5_baseColor.jpeg"
    },
    {
      "uri": "textures/lambert5_metallicRoughness.png"
    },
    {
      "uri": "textures/lambert5_normal.png"
    }
  ],
  "materials": [
    {
      "doubleSided": true,
      "name": "lambert5",
      "normalTexture": {
        "index": 2
      },
      "pbrMetallicRoughness": {
        "baseColorTexture": {
          "index": 0
        },
        "metallicFactor": 0.0,
        "metallicRoughnessTexture": {
          "index": 1
        }
      }
    }
  ],
  "meshes": [
    {
      "name": "skeleton1_lambert5_0",
      "primitives": [
        {
          "attributes": {
            "COLOR_0": 3,
            "NORMAL": 1,
            "POSITION": 0,
            "TANGENT": 2,
            "TEXCOORD_0": 4,
            "TEXCOORD_1": 5
          },
          "indices": 6,
          "material": 0,
          "mode": 4
        }
      ]
    }
  ],
  "nodes": [
    {
      "children": [
        1
      ],
      "matrix": [
        1.0,
        0.0,
        0.0,
        0.0,
        0.0,
        2.220446049250313e-16,
        -1.0,
        0.0,
        0.0,
        1.0,
        2.220446049250313e-16,
        0.0,
        0.0,
        0.0,
        0.0,
        1.0
      ],
      "name": "Sketchfab_model"
    },
    {
      "children": [
        2
      ],
      "matrix": [
        0.009999999776482582,
        0.0,
        0.0,
        0.0,
        0.0,
        0.0,
        0.009999999776482582,
        0.0,
        0.0,
        -0.009999999776482582,
        0.0,
        0.0,
        0.0,
        0.0,
        0.0,
        1.0
      ],
      "name": "skeleton1.fbx"
    },
    {
      "children": [
        3
      ],
      "name": "RootNode"
    },
    {
      "children": [
        4
      ],
      "name": "skeleton1"
    },
    {
      "mesh": 0,
      "name": "skeleton1_lambert5_0"
    }
  ],
  "samplers": [
    {
      "magFilter": 9729,
      "minFilter": 9987,
      "wrapS": 10497,
      "wrapT": 10497
    }
  ],
  "scene": 0,
  "scenes": [
    {
      "name": "Sketchfab_Scene",
      "nodes": [
        0
      ]
    }
  ],
  "textures": [
    {
      "sampler": 0,
      "source": 0
    },
    {
      "sampler": 0,
      "source": 1
    },
    {
      "sampler": 0,
      "source": 2
    }
  ]
}
